<svg width="178" height="50" viewBox="0 0 178 50" fill="none" xmlns="http://www.w3.org/2000/svg">
<rect x="18.4744" y="46.7246" width="48.1005" height="8.25784" rx="4.12892" transform="rotate(-72.6624 18.4744 46.7246)" fill="#53EDD1"/>
<rect x="4.81519" y="17.394" width="36.885" height="8.25784" rx="4.12892" transform="rotate(-28.1364 4.81519 17.394)" fill="#FF0076"/>
<rect y="36.7334" width="64.0378" height="8.25784" rx="4.12892" transform="rotate(-28.1364 0 36.7334)" fill="#4969F8"/>
<rect x="18.0278" y="42.718" width="36.885" height="8.25784" rx="4.12892" transform="rotate(-28.1364 18.0278 42.718)" fill="#FFCF4F"/>
<path d="M80.808 31.52H90.472V36H74.6V31.84L84.2 18.016H74.6V13.536H90.472V17.696L80.808 31.52ZM110.878 26.784C110.878 27.296 110.847 27.8293 110.783 28.384H98.3985C98.4838 29.4933 98.8358 30.3467 99.4545 30.944C100.095 31.52 100.873 31.808 101.791 31.808C103.156 31.808 104.105 31.232 104.639 30.08H110.463C110.164 31.2533 109.62 32.3093 108.831 33.248C108.063 34.1867 107.092 34.9227 105.919 35.456C104.745 35.9893 103.433 36.256 101.983 36.256C100.233 36.256 98.6758 35.8827 97.3105 35.136C95.9452 34.3893 94.8785 33.3227 94.1105 31.936C93.3425 30.5493 92.9585 28.928 92.9585 27.072C92.9585 25.216 93.3318 23.5947 94.0785 22.208C94.8465 20.8213 95.9132 19.7547 97.2785 19.008C98.6438 18.2613 100.212 17.888 101.983 17.888C103.711 17.888 105.247 18.2507 106.591 18.976C107.935 19.7013 108.98 20.736 109.727 22.08C110.495 23.424 110.878 24.992 110.878 26.784ZM105.279 25.344C105.279 24.4053 104.959 23.6587 104.319 23.104C103.679 22.5493 102.879 22.272 101.919 22.272C101.001 22.272 100.223 22.5387 99.5825 23.072C98.9638 23.6053 98.5798 24.3627 98.4305 25.344H105.279ZM124.645 17.952C126.736 17.952 128.4 18.6347 129.637 20C130.896 21.344 131.525 23.2 131.525 25.568V36H126.085V26.304C126.085 25.1093 125.776 24.1813 125.157 23.52C124.539 22.8587 123.707 22.528 122.661 22.528C121.616 22.528 120.784 22.8587 120.165 23.52C119.547 24.1813 119.237 25.1093 119.237 26.304V36H113.765V18.144H119.237V20.512C119.792 19.7227 120.539 19.104 121.477 18.656C122.416 18.1867 123.472 17.952 124.645 17.952ZM134.24 27.04C134.24 25.2053 134.581 23.5947 135.264 22.208C135.968 20.8213 136.917 19.7547 138.112 19.008C139.306 18.2613 140.64 17.888 142.112 17.888C143.285 17.888 144.352 18.1333 145.312 18.624C146.293 19.1147 147.061 19.776 147.616 20.608V12.32H153.088V36H147.616V33.44C147.104 34.2933 146.368 34.976 145.408 35.488C144.469 36 143.37 36.256 142.112 36.256C140.64 36.256 139.306 35.8827 138.112 35.136C136.917 34.368 135.968 33.2907 135.264 31.904C134.581 30.496 134.24 28.8747 134.24 27.04ZM147.616 27.072C147.616 25.7067 147.232 24.6293 146.464 23.84C145.717 23.0507 144.8 22.656 143.712 22.656C142.624 22.656 141.696 23.0507 140.928 23.84C140.181 24.608 139.808 25.6747 139.808 27.04C139.808 28.4053 140.181 29.4933 140.928 30.304C141.696 31.0933 142.624 31.488 143.712 31.488C144.8 31.488 145.717 31.0933 146.464 30.304C147.232 29.5147 147.616 28.4373 147.616 27.072ZM159.799 16.288C158.839 16.288 158.049 16.0107 157.431 15.456C156.833 14.88 156.535 14.176 156.535 13.344C156.535 12.4907 156.833 11.7867 157.431 11.232C158.049 10.656 158.839 10.368 159.799 10.368C160.737 10.368 161.505 10.656 162.103 11.232C162.721 11.7867 163.031 12.4907 163.031 13.344C163.031 14.176 162.721 14.88 162.103 15.456C161.505 16.0107 160.737 16.288 159.799 16.288ZM162.519 18.144V36H157.047V18.144H162.519ZM176.436 31.36V36H173.652C171.668 36 170.121 35.52 169.012 34.56C167.903 33.5787 167.348 31.9893 167.348 29.792V22.688H165.172V18.144H167.348V13.792H172.82V18.144H176.404V22.688H172.82V29.856C172.82 30.3893 172.948 30.7733 173.204 31.008C173.46 31.2427 173.887 31.36 174.484 31.36H176.436Z" fill="#172F53"/>
</svg>
